<?xml version="1.0" encoding="UTF-8" standalone="no"?>
<!-- Created with Inkscape (http://www.inkscape.org/) -->

<svg
   version="1.1"
   id="svg1"
   width="807.13531"
   height="694.08429"
   viewBox="0 0 807.13531 694.08429"
   sodipodi:docname="NUMERA LOGO FINAL.svg"
   xml:space="preserve"
   inkscape:version="1.4 (86a8ad7, 2024-10-11)"
   xmlns:inkscape="http://www.inkscape.org/namespaces/inkscape"
   xmlns:sodipodi="http://sodipodi.sourceforge.net/DTD/sodipodi-0.dtd"
   xmlns="http://www.w3.org/2000/svg"
   xmlns:svg="http://www.w3.org/2000/svg"><defs
     id="defs1"><inkscape:path-effect
       effect="fillet_chamfer"
       id="path-effect5"
       is_visible="true"
       lpeversion="1"
       nodesatellites_param="F,0,0,1,0,0,0,1 @ F,0,0,1,0,0,0,1 @ F,0,0,1,0,0,0,1 @ F,0,0,1,0,0,0,1 @ F,0,0,1,0,0,0,1 | F,0,0,1,0,0,0,1 @ F,0,0,1,0,0,0,1 @ F,0,0,1,0,0,0,1 @ F,0,0,1,0,0,0,1 @ F,0,0,1,0,0,0,1 @ F,0,0,1,0,0,0,1 @ F,0,0,1,0,0,0,1 @ F,0,0,1,0,0,0,1 @ F,0,0,1,0,0,0,1 @ F,0,0,1,0,0,0,1 @ F,0,0,1,0,0,0,1 @ F,0,0,1,0,0,0,1 @ F,0,0,1,0,0,0,1 @ F,0,0,1,0,0,0,1 @ F,0,0,1,0,0,0,1 @ F,0,0,1,0,0,0,1 @ F,0,0,1,0,0,0,1 @ F,0,0,1,0,0,0,1 @ F,0,0,1,0,0,0,1 @ F,0,0,1,0,0,0,1 @ F,0,0,1,0,0,0,1 @ F,0,0,1,0,0,0,1 | F,0,0,1,0,0,0,1 @ F,0,0,1,0,0,0,1 @ F,0,0,1,0,0,0,1 @ F,0,0,1,0,0,0,1 @ F,0,0,1,0,0,0,1 | F,0,0,1,0,0,0,1 @ F,0,0,1,0,0,0,1 @ F,0,0,1,0,0,0,1 @ F,0,0,1,0,0,0,1 | F,0,0,1,0,0,0,1 @ F,0,0,1,0,0,0,1 @ F,0,0,1,0,0,0,1 @ F,0,0,1,0,0,0,1 @ F,0,0,1,0,0,0,1 | F,0,0,1,0,0,0,1 @ F,0,0,1,0,0,0,1 @ F,0,0,1,0,0,0,1 @ F,0,0,1,0,0,0,1 @ F,0,0,1,0,0,0,1 | F,0,0,1,0,0,0,1 @ F,0,0,1,0,0,0,1 @ F,0,0,1,0,0,0,1 @ F,0,0,1,0,0,0,1 @ F,0,0,1,0,0,0,1 @ F,0,0,1,0,0,0,1 | F,0,0,1,0,0,0,1 @ F,0,0,1,0,0,0,1 @ F,0,0,1,0,0,0,1 @ F,0,0,1,0,0,0,1 | F,0,0,1,0,0,0,1 @ F,0,0,1,0,0,0,1 @ F,0,0,1,0,0,0,1 @ F,0,0,1,0,0,0,1 @ F,0,0,1,0,0,0,1 @ F,0,0,1,0,0,0,1 | F,0,0,1,0,0,0,1 @ F,0,0,1,0,0,0,1 @ F,0,0,1,0,0,0,1 @ F,0,0,1,0,0,0,1 @ F,0,0,1,0,0,0,1 | F,0,0,1,0,0,0,1 @ F,0,0,1,0,0,0,1 @ F,0,0,1,0,0,0,1 @ F,0,0,1,0,0,0,1 | F,0,0,1,0,0,0,1 @ F,0,0,1,0,0,0,1 @ F,0,0,1,0,0,0,1 @ F,0,0,1,0,0,0,1"
       radius="0"
       unit="px"
       method="auto"
       mode="F"
       chamfer_steps="1"
       flexible="false"
       use_knot_distance="true"
       apply_no_radius="true"
       apply_with_radius="true"
       only_selected="false"
       hide_knots="false" /><filter
       style="color-interpolation-filters:sRGB"
       inkscape:label="Invert"
       id="filter3"
       x="0"
       y="0"
       width="1"
       height="1"><feColorMatrix
         type="hueRotate"
         values="180"
         result="color1"
         id="feColorMatrix2" /><feColorMatrix
         values="1 0 0 0 0 0 1 0 0 0 0 0 1 0 0 -0.21 -0.72 -0.07 2 0 "
         result="color2"
         id="feColorMatrix3" /></filter></defs><sodipodi:namedview
     id="namedview1"
     pagecolor="#ffffff"
     bordercolor="#000000"
     borderopacity="0.25"
     inkscape:showpageshadow="2"
     inkscape:pageopacity="0.0"
     inkscape:pagecheckerboard="0"
     inkscape:deskcolor="#d1d1d1"
     inkscape:zoom="2.1191366"
     inkscape:cx="388.83761"
     inkscape:cy="359.81636"
     inkscape:window-width="2560"
     inkscape:window-height="1494"
     inkscape:window-x="-11"
     inkscape:window-y="-11"
     inkscape:window-maximized="1"
     inkscape:current-layer="layer3" /><g
     inkscape:groupmode="layer"
     id="layer3"
     inkscape:label="Layer 1"
     style="display:inline"
     transform="matrix(1.9092965,0,0,1.9116731,-1514.7442,-923.83889)"><path
       d="m 1154.7668,755.56226 c -9.4225,12.97003 -20.6098,34.0546 -23,50 8.9987,-3.60056 17.9975,-7.20113 26.9962,-10.80169 6.3346,3.60056 12.6692,7.20113 19.0038,10.80169 -2.2206,-15.03634 -12.0139,-39.35577 -23,-50 m -304.99994,1 v 49 c 14.9942,-0.0116 10.43285,-17.66241 9,-29 8.45996,8.63825 18.02785,25.63959 30,29 v -48 c -14.32908,0.011 -9,16.70627 -9,28 -7.44803,-9.15344 -18.29728,-25.71518 -30,-29 m 57,1 c 0,10.95133 -3.19362,27.94129 1.41744,37.99921 6.22957,13.58832 27.14731,13.41144 34.5733,1.00003 5.62303,-9.39804 2.00926,-28.27496 2.00926,-38.99924 h -9 c 0,8.00647 4.01264,46.70096 -13.95678,37.67823 -10.35735,-5.20057 -6.04322,-28.08954 -6.04322,-37.67823 h -9 m 56,0 v 48 h 9 v -29 h 1 c 11.50173,24.31302 13.60807,11.64115 28.00004,0 -0.3334,9.66667 -0.6667,19.33333 -1.00004,29 16.82114,-0.013 10.00004,-34.74051 10.00004,-48 -12.59641,0.14887 -16.17385,14.18878 -25.00004,21 -3.54251,-7.94827 -12.73486,-20.69684 -22,-21 m 65.99994,0 v 47 h 33 v -9 h -24 v -10 h 19 c 3.5659,-12.19995 -11.034,-9 -19,-9 v -10 h 23 v -9 h -32 m 49,0 c 0.3333,16 0.6667,32 1,48 3,-0.33333 6,-0.66667 9,-1 v -15 c 14.7433,0.0114 13.8415,15.31122 29,15 -3.3333,-5.66667 -6.6667,-11.33333 -10,-17 11.3177,-5.29303 12.848,-22.58743 0.9993,-28.54321 -7.9015,-3.97165 -21.3129,-1.45679 -29.9993,-1.45679 m 10,23 v -14 c 22.0289,0 22.0396,14 0,14 m 68,-8 c 1.6667,5 3.3333,10 5,15 h -12 c 2.3333,-5 4.6667,-10 7,-15"
       style="fill:#423e51;stroke:none"
       id="path1" /></g><g
     inkscape:groupmode="layer"
     inkscape:label="Image"
     id="g1"
     transform="translate(-793.35196,-483.26195)"
     style="display:inline"><g
       id="g4"
       transform="matrix(1.9092965,0,0,1.9116731,-721.39226,-440.57694)"
       style="display:inline"><g
         id="g5"
         style="display:inline"><path
           style="fill:#423e51;stroke:none"
           d="m 990.2358,484.77788 c -20.27609,3.16025 -40.26059,9.6846 -57,21.84952 -102.32253,74.3601 -39.03741,249.38458 90,229.2724 21.0136,-3.27527 40.6773,-10.84079 58,-23.30713 101.3647,-72.94705 34.3378,-247.35004 -91,-227.81479 m 21,243.56094 c -4.2637,-14.4248 -1,-33.95068 -1,-49 v -102 c 0,-10.14917 -5.2035,-40.52899 1.0278,-48.3966 4.6427,-5.86188 34.4768,-1.6034 41.9722,-1.6034 -4.548,14.37189 -18.8629,24.70298 -11.6365,41 9.4231,21.25128 39.9087,14.63159 41.5385,-8 0.8755,-12.15686 -11.3715,-22.84369 -14.902,-34 l 2,-8 h -60 c 2.5312,-19.45199 -11.28689,-18.76776 -9,0 h -62 c 0.12541,3.87769 0.50162,6.07184 4,8 -2.30934,12.79676 -16.01181,21.19495 -14.90664,35 2.04164,25.50293 34.33731,26.18897 42.46298,4 5.15741,-14.08346 -8.00835,-25.50625 -12.55634,-38 h 43 v 200 c -92.00613,-0.25384 -140.10826,-110.70886 -91.92129,-184 19.17866,-29.17025 50.93161,-45.53943 84.92129,-49.71371 86.0332,-10.56577 152.0647,82.99795 119.9854,161.71371 -19.5471,47.9643 -56.7792,61.87183 -102.9854,73 m -60,-195 11,20 c -6.85296,2.02564 -17.14703,2.02564 -24,0 l 11,-20 h 2 m 110,0 11,21 h -23 c 1.1931,-7.64926 6.0137,-16.12326 12,-21 m -84,51 c 0,34.03113 1,67.94171 1,102 0,16.23185 -6.55615,31.51551 13,34 v -136 h -14 m 43,0 v 136 l 13,-2 v -134 h -13 m 67,0 1,100 h 1 c 3.1039,-4.96225 10.1492,-9.63736 11.6821,-15.16977 7.3555,-26.5465 -3.6653,-57.98706 1.3179,-84.83023 h -15 m -179,7 c 0.48711,23.60044 -8.78524,78.23954 15,92 l 1,-92 h -16 m 46,20 1,67 0.6034,29.78626 12.3966,7.21374 v -105 l -14,1 m 89,-1 v 104 l 13,-4 c 0,-32.81454 -3.1126,-67.45807 1,-100 h -14 m 23,14 -1,78 c 23.7511,-10.51764 14,-55.14203 14,-78 h -13 m -134,1 c 0,23.36838 -9.26251,65.31824 13,78 v -78 h -13"
           id="path3"
           sodipodi:nodetypes="ccscccsssccsccccccsscccssscccccccccccsccccccccccccccccccccccccccccccccccccc"
           inkscape:path-effect="#path-effect5"
           inkscape:original-d="m 990.2358,484.77788 c -20.27609,3.16025 -40.26059,9.6846 -57,21.84952 -102.32253,74.3601 -39.03741,249.38458 90,229.2724 21.0136,-3.27527 40.6773,-10.84079 58,-23.30713 101.3647,-72.94705 34.3378,-247.35004 -91,-227.81479 m 21,243.56094 c -4.2637,-14.4248 -1,-33.95068 -1,-49 v -102 c 0,-10.14917 -5.2035,-40.52899 1.0278,-48.3966 4.6427,-5.86188 34.4768,-1.6034 41.9722,-1.6034 -4.548,14.37189 -18.8629,24.70298 -11.6365,41 9.4231,21.25128 39.9087,14.63159 41.5385,-8 0.8755,-12.15686 -11.3715,-22.84369 -14.902,-34 l 2,-8 h -60 c 2.5312,-19.45199 -11.28689,-18.76776 -9,0 h -62 c 0.12541,3.87769 0.50162,6.07184 4,8 -2.30934,12.79676 -16.01181,21.19495 -14.90664,35 2.04164,25.50293 34.33731,26.18897 42.46298,4 5.15741,-14.08346 -8.00835,-25.50625 -12.55634,-38 h 43 v 200 c -92.00613,-0.25384 -140.10826,-110.70886 -91.92129,-184 19.17866,-29.17025 50.93161,-45.53943 84.92129,-49.71371 86.0332,-10.56577 152.0647,82.99795 119.9854,161.71371 -19.5471,47.9643 -56.7792,61.87183 -102.9854,73 m -60,-195 11,20 c -6.85296,2.02564 -17.14703,2.02564 -24,0 l 11,-20 h 2 m 110,0 11,21 h -23 c 1.1931,-7.64926 6.0137,-16.12326 12,-21 m -84,51 c 0,34.03113 1,67.94171 1,102 0,16.23185 -6.55615,31.51551 13,34 v -136 h -14 m 43,0 v 136 l 13,-2 v -134 h -13 m 67,0 1,100 h 1 c 3.1039,-4.96225 10.1492,-9.63736 11.6821,-15.16977 7.3555,-26.5465 -3.6653,-57.98706 1.3179,-84.83023 h -15 m -179,7 c 0.48711,23.60044 -8.78524,78.23954 15,92 l 1,-92 h -16 m 46,20 1,67 0.6034,29.78626 12.3966,7.21374 v -105 l -14,1 m 89,-1 v 104 l 13,-4 c 0,-32.81454 -3.1126,-67.45807 1,-100 h -14 m 23,14 -1,78 c 23.7511,-10.51764 14,-55.14203 14,-78 h -13 m -134,1 c 0,23.36838 -9.26251,65.31824 13,78 v -78 h -13" /></g></g></g></svg>
