<svg xmlns="http://www.w3.org/2000/svg" xmlns:xlink="http://www.w3.org/1999/xlink" width="1200" zoomAndPan="magnify" viewBox="0 0 900 472.499986" height="630" preserveAspectRatio="xMidYMid meet" version="1.0"><defs><clipPath id="2c10d62bdc"><path d="M 0.476562 0 L 899.523438 0 L 899.523438 472 L 0.476562 472 Z M 0.476562 0 " clip-rule="nonzero"/></clipPath><clipPath id="e7641ce630"><path d="M 328 24.710938 L 575 24.710938 L 575 277 L 328 277 Z M 328 24.710938 " clip-rule="nonzero"/></clipPath></defs><g clip-path="url(#2c10d62bdc)"><path fill="#ffffff" d="M 0.476562 0 L 899.523438 0 L 899.523438 472 L 0.476562 472 Z M 0.476562 0 " fill-opacity="1" fill-rule="nonzero"/><path fill="#0d1e36" d="M 0.476562 0 L 899.523438 0 L 899.523438 472 L 0.476562 472 Z M 0.476562 0 " fill-opacity="1" fill-rule="nonzero"/></g><path fill="#ffffff" d="M 598.632812 294.796875 C 589.296875 307.664062 578.214844 328.574219 575.847656 344.390625 C 584.761719 340.820312 593.675781 337.25 602.589844 333.675781 C 608.867188 337.25 615.140625 340.820312 621.417969 344.390625 C 619.214844 329.476562 609.515625 305.355469 598.632812 294.796875 M 296.496094 295.789062 L 296.496094 344.390625 C 311.347656 344.378906 306.828125 326.871094 305.410156 315.628906 C 313.792969 324.195312 323.269531 341.058594 335.128906 344.390625 L 335.128906 296.78125 C 320.933594 296.792969 326.214844 313.351562 326.214844 324.554688 C 318.835938 315.476562 308.089844 299.046875 296.496094 295.789062 M 352.960938 296.78125 C 352.960938 307.644531 349.796875 324.496094 354.363281 334.472656 C 360.535156 347.949219 381.257812 347.773438 388.613281 335.464844 C 394.183594 326.140625 390.601562 307.417969 390.601562 296.78125 L 381.6875 296.78125 C 381.6875 304.722656 385.664062 343.101562 367.863281 334.152344 C 357.601562 328.996094 361.875 306.292969 361.875 296.78125 L 352.960938 296.78125 M 408.433594 296.78125 L 408.433594 344.390625 L 417.351562 344.390625 L 417.351562 315.628906 L 418.339844 315.628906 C 429.734375 339.742188 431.820312 327.171875 446.078125 315.628906 C 445.746094 325.214844 445.417969 334.804688 445.085938 344.390625 C 461.75 344.378906 454.992188 309.933594 454.992188 296.78125 C 442.515625 296.929688 438.972656 310.855469 430.226562 317.609375 C 426.71875 309.726562 417.613281 297.082031 408.433594 296.78125 M 473.816406 296.78125 L 473.816406 343.398438 L 506.503906 343.398438 L 506.503906 334.472656 L 482.730469 334.472656 L 482.730469 324.554688 L 501.550781 324.554688 C 505.085938 312.453125 490.621094 315.628906 482.730469 315.628906 L 482.730469 305.707031 L 505.515625 305.707031 L 505.515625 296.78125 L 473.816406 296.78125 M 522.355469 296.78125 C 522.683594 312.652344 523.015625 328.519531 523.34375 344.390625 C 526.316406 344.058594 529.289062 343.730469 532.261719 343.398438 L 532.261719 328.519531 C 546.867188 328.53125 545.972656 343.707031 560.988281 343.398438 C 557.6875 337.777344 554.386719 332.15625 551.082031 326.539062 C 562.292969 321.289062 563.808594 304.132812 552.074219 298.226562 C 544.246094 294.289062 530.960938 296.78125 522.355469 296.78125 M 532.261719 319.59375 L 532.261719 305.707031 C 554.082031 305.707031 554.09375 319.59375 532.261719 319.59375 M 599.621094 311.660156 C 601.273438 316.617188 602.925781 321.578125 604.574219 326.539062 L 592.6875 326.539062 C 595 321.578125 597.3125 316.617188 599.621094 311.660156 " fill-opacity="1" fill-rule="nonzero"/><g clip-path="url(#e7641ce630)"><path fill="#ffffff" d="M 435.644531 26.222656 C 415.558594 29.355469 395.761719 35.828125 379.179688 47.894531 C 277.816406 121.648438 340.507812 295.246094 468.335938 275.296875 C 489.152344 272.046875 508.632812 264.542969 525.792969 252.179688 C 626.203125 179.828125 559.808594 6.847656 435.644531 26.222656 M 456.449219 267.796875 C 452.226562 253.488281 455.457031 234.125 455.457031 219.195312 L 455.457031 118.027344 C 455.457031 107.960938 450.304688 77.828125 456.476562 70.027344 C 461.074219 64.210938 490.628906 68.4375 498.054688 68.4375 C 493.550781 82.691406 479.367188 92.9375 486.527344 109.101562 C 495.863281 130.179688 526.0625 123.613281 527.675781 101.167969 C 528.542969 89.109375 516.410156 78.507812 512.914062 67.445312 L 514.894531 59.507812 L 455.457031 59.507812 C 457.964844 40.214844 444.277344 40.894531 446.542969 59.507812 L 385.125 59.507812 C 385.25 63.355469 385.621094 65.53125 389.085938 67.445312 C 386.800781 80.136719 373.226562 88.464844 374.320312 102.160156 C 376.34375 127.453125 408.335938 128.132812 416.382812 106.125 C 421.492188 92.15625 408.449219 80.828125 403.945312 68.4375 L 446.542969 68.4375 L 446.542969 266.804688 C 355.398438 266.554688 307.75 157 355.484375 84.304688 C 374.480469 55.371094 405.9375 39.136719 439.609375 34.996094 C 524.832031 24.515625 590.246094 117.316406 558.46875 195.390625 C 539.101562 242.964844 502.222656 256.757812 456.449219 267.796875 M 397.011719 74.386719 L 407.910156 94.222656 C 401.121094 96.234375 390.921875 96.234375 384.132812 94.222656 L 395.03125 74.386719 L 397.011719 74.386719 M 505.980469 74.386719 L 516.875 95.214844 L 494.089844 95.214844 C 495.273438 87.628906 500.050781 79.222656 505.980469 74.386719 M 422.765625 124.972656 C 422.765625 158.726562 423.757812 192.359375 423.757812 226.140625 C 423.757812 242.238281 417.261719 257.398438 436.636719 259.863281 L 436.636719 124.972656 L 422.765625 124.972656 M 465.363281 124.972656 L 465.363281 259.863281 L 478.242188 257.878906 L 478.242188 124.972656 L 465.363281 124.972656 M 531.734375 124.972656 L 532.726562 224.15625 L 533.714844 224.15625 C 536.792969 219.234375 543.769531 214.597656 545.289062 209.109375 C 552.574219 182.78125 541.65625 151.59375 546.59375 124.972656 L 531.734375 124.972656 M 354.414062 131.914062 C 354.898438 155.320312 345.710938 209.515625 369.273438 223.164062 L 370.265625 131.914062 L 354.414062 131.914062 M 399.984375 151.75 L 400.972656 218.203125 L 401.570312 247.75 L 413.851562 254.902344 L 413.851562 150.757812 L 399.984375 151.75 M 488.148438 150.757812 L 488.148438 253.910156 L 501.027344 249.945312 C 501.027344 217.398438 497.941406 183.035156 502.015625 150.757812 L 488.148438 150.757812 M 510.933594 164.644531 L 509.941406 242.007812 C 533.46875 231.578125 523.808594 187.316406 523.808594 164.644531 L 510.933594 164.644531 M 378.191406 165.636719 C 378.191406 188.816406 369.015625 230.421875 391.066406 243 L 391.066406 165.636719 L 378.191406 165.636719 " fill-opacity="1" fill-rule="nonzero"/></g></svg>