<?xml version="1.0" encoding="UTF-8" standalone="no"?>
<!-- Created with Inkscape (http://www.inkscape.org/) -->

<svg
   version="1.1"
   id="svg1"
   width="773.87103"
   height="786.01501"
   viewBox="0 0 773.87104 786.01501"
   sodipodi:docname="01.ISOTIPO_NUMERA.svg"
   xml:space="preserve"
   inkscape:version="1.4 (86a8ad7, 2024-10-11)"
   xmlns:inkscape="http://www.inkscape.org/namespaces/inkscape"
   xmlns:sodipodi="http://sodipodi.sourceforge.net/DTD/sodipodi-0.dtd"
   xmlns="http://www.w3.org/2000/svg"
   xmlns:svg="http://www.w3.org/2000/svg"><defs
     id="defs1"><inkscape:path-effect
       effect="fillet_chamfer"
       id="path-effect5"
       is_visible="true"
       lpeversion="1"
       nodesatellites_param="F,0,0,1,0,0,0,1 @ F,0,0,1,0,0,0,1 @ F,0,0,1,0,0,0,1 @ F,0,0,1,0,0,0,1 @ F,0,0,1,0,0,0,1 | F,0,0,1,0,0,0,1 @ F,0,0,1,0,0,0,1 @ F,0,0,1,0,0,0,1 @ F,0,0,1,0,0,0,1 @ F,0,0,1,0,0,0,1 @ F,0,0,1,0,0,0,1 @ F,0,0,1,0,0,0,1 @ F,0,0,1,0,0,0,1 @ F,0,0,1,0,0,0,1 @ F,0,0,1,0,0,0,1 @ F,0,0,1,0,0,0,1 @ F,0,0,1,0,0,0,1 @ F,0,0,1,0,0,0,1 @ F,0,0,1,0,0,0,1 @ F,0,0,1,0,0,0,1 @ F,0,0,1,0,0,0,1 @ F,0,0,1,0,0,0,1 @ F,0,0,1,0,0,0,1 @ F,0,0,1,0,0,0,1 @ F,0,0,1,0,0,0,1 @ F,0,0,1,0,0,0,1 @ F,0,0,1,0,0,0,1 | F,0,0,1,0,0,0,1 @ F,0,0,1,0,0,0,1 @ F,0,0,1,0,0,0,1 @ F,0,0,1,0,0,0,1 @ F,0,0,1,0,0,0,1 | F,0,0,1,0,0,0,1 @ F,0,0,1,0,0,0,1 @ F,0,0,1,0,0,0,1 @ F,0,0,1,0,0,0,1 | F,0,0,1,0,0,0,1 @ F,0,0,1,0,0,0,1 @ F,0,0,1,0,0,0,1 @ F,0,0,1,0,0,0,1 @ F,0,0,1,0,0,0,1 | F,0,0,1,0,0,0,1 @ F,0,0,1,0,0,0,1 @ F,0,0,1,0,0,0,1 @ F,0,0,1,0,0,0,1 @ F,0,0,1,0,0,0,1 | F,0,0,1,0,0,0,1 @ F,0,0,1,0,0,0,1 @ F,0,0,1,0,0,0,1 @ F,0,0,1,0,0,0,1 @ F,0,0,1,0,0,0,1 @ F,0,0,1,0,0,0,1 | F,0,0,1,0,0,0,1 @ F,0,0,1,0,0,0,1 @ F,0,0,1,0,0,0,1 @ F,0,0,1,0,0,0,1 | F,0,0,1,0,0,0,1 @ F,0,0,1,0,0,0,1 @ F,0,0,1,0,0,0,1 @ F,0,0,1,0,0,0,1 @ F,0,0,1,0,0,0,1 @ F,0,0,1,0,0,0,1 | F,0,0,1,0,0,0,1 @ F,0,0,1,0,0,0,1 @ F,0,0,1,0,0,0,1 @ F,0,0,1,0,0,0,1 @ F,0,0,1,0,0,0,1 | F,0,0,1,0,0,0,1 @ F,0,0,1,0,0,0,1 @ F,0,0,1,0,0,0,1 @ F,0,0,1,0,0,0,1 | F,0,0,1,0,0,0,1 @ F,0,0,1,0,0,0,1 @ F,0,0,1,0,0,0,1 @ F,0,0,1,0,0,0,1"
       radius="0"
       unit="px"
       method="auto"
       mode="F"
       chamfer_steps="1"
       flexible="false"
       use_knot_distance="true"
       apply_no_radius="true"
       apply_with_radius="true"
       only_selected="false"
       hide_knots="false" /><filter
       style="color-interpolation-filters:sRGB"
       inkscape:label="Invert"
       id="filter3"
       x="0"
       y="0"
       width="1"
       height="1"><feColorMatrix
         type="hueRotate"
         values="180"
         result="color1"
         id="feColorMatrix2" /><feColorMatrix
         values="1 0 0 0 0 0 1 0 0 0 0 0 1 0 0 -0.21 -0.72 -0.07 2 0 "
         result="color2"
         id="feColorMatrix3" /></filter></defs><sodipodi:namedview
     id="namedview1"
     pagecolor="#ffffff"
     bordercolor="#000000"
     borderopacity="0.25"
     inkscape:showpageshadow="2"
     inkscape:pageopacity="0.0"
     inkscape:pagecheckerboard="0"
     inkscape:deskcolor="#d1d1d1"
     inkscape:zoom="0.52978415"
     inkscape:cx="404.88187"
     inkscape:cy="908.86071"
     inkscape:window-width="2560"
     inkscape:window-height="1494"
     inkscape:window-x="-11"
     inkscape:window-y="-11"
     inkscape:window-maximized="1"
     inkscape:current-layer="g1" /><g
     inkscape:groupmode="layer"
     id="layer3"
     inkscape:label="Layer 1"
     style="display:inline"
     transform="matrix(1.9092965,0,0,1.9116731,-1684.6981,-923.83888)" /><g
     inkscape:groupmode="layer"
     inkscape:label="Image"
     id="g1"
     transform="translate(-963.30585,-483.26194)"
     style="display:inline"><g
       id="g4"
       transform="matrix(3.1180424,0,0,3.0916798,-1787.9484,-1010.8293)"
       style="display:inline"><g
         id="g5"
         style="display:inline"><path
           style="fill:#423e51;stroke:none"
           d="m 990.2358,484.77788 c -20.27609,3.16025 -40.26059,9.6846 -57,21.84952 -102.32253,74.3601 -39.03741,249.38458 90,229.2724 21.0136,-3.27527 40.6773,-10.84079 58,-23.30713 101.3647,-72.94705 34.3378,-247.35004 -91,-227.81479 m 21,243.56094 c -4.2637,-14.4248 -1,-33.95068 -1,-49 v -102 c 0,-10.14917 -5.2035,-40.52899 1.0278,-48.3966 4.6427,-5.86188 34.4768,-1.6034 41.9722,-1.6034 -4.548,14.37189 -18.8629,24.70298 -11.6365,41 9.4231,21.25128 39.9087,14.63159 41.5385,-8 0.8755,-12.15686 -11.3715,-22.84369 -14.902,-34 l 2,-8 h -60 c 2.5312,-19.45199 -11.28689,-18.76776 -9,0 h -62 c 0.12541,3.87769 0.50162,6.07184 4,8 -2.30934,12.79676 -16.01181,21.19495 -14.90664,35 2.04164,25.50293 34.33731,26.18897 42.46298,4 5.15741,-14.08346 -8.00835,-25.50625 -12.55634,-38 h 43 v 200 c -92.00613,-0.25384 -140.10826,-110.70886 -91.92129,-184 19.17866,-29.17025 50.93161,-45.53943 84.92129,-49.71371 86.0332,-10.56577 152.0647,82.99795 119.9854,161.71371 -19.5471,47.9643 -56.7792,61.87183 -102.9854,73 m -60,-195 11,20 c -6.85296,2.02564 -17.14703,2.02564 -24,0 l 11,-20 h 2 m 110,0 11,21 h -23 c 1.1931,-7.64926 6.0137,-16.12326 12,-21 m -84,51 c 0,34.03113 1,67.94171 1,102 0,16.23185 -6.55615,31.51551 13,34 v -136 h -14 m 43,0 v 136 l 13,-2 v -134 h -13 m 67,0 1,100 h 1 c 3.1039,-4.96225 10.1492,-9.63736 11.6821,-15.16977 7.3555,-26.5465 -3.6653,-57.98706 1.3179,-84.83023 h -15 m -179,7 c 0.48711,23.60044 -8.78524,78.23954 15,92 l 1,-92 h -16 m 46,20 1,67 0.6034,29.78626 12.3966,7.21374 v -105 l -14,1 m 89,-1 v 104 l 13,-4 c 0,-32.81454 -3.1126,-67.45807 1,-100 h -14 m 23,14 -1,78 c 23.7511,-10.51764 14,-55.14203 14,-78 h -13 m -134,1 c 0,23.36838 -9.26251,65.31824 13,78 v -78 h -13"
           id="path3"
           sodipodi:nodetypes="ccscccsssccsccccccsscccssscccccccccccsccccccccccccccccccccccccccccccccccccc"
           inkscape:path-effect="#path-effect5"
           inkscape:original-d="m 990.2358,484.77788 c -20.27609,3.16025 -40.26059,9.6846 -57,21.84952 -102.32253,74.3601 -39.03741,249.38458 90,229.2724 21.0136,-3.27527 40.6773,-10.84079 58,-23.30713 101.3647,-72.94705 34.3378,-247.35004 -91,-227.81479 m 21,243.56094 c -4.2637,-14.4248 -1,-33.95068 -1,-49 v -102 c 0,-10.14917 -5.2035,-40.52899 1.0278,-48.3966 4.6427,-5.86188 34.4768,-1.6034 41.9722,-1.6034 -4.548,14.37189 -18.8629,24.70298 -11.6365,41 9.4231,21.25128 39.9087,14.63159 41.5385,-8 0.8755,-12.15686 -11.3715,-22.84369 -14.902,-34 l 2,-8 h -60 c 2.5312,-19.45199 -11.28689,-18.76776 -9,0 h -62 c 0.12541,3.87769 0.50162,6.07184 4,8 -2.30934,12.79676 -16.01181,21.19495 -14.90664,35 2.04164,25.50293 34.33731,26.18897 42.46298,4 5.15741,-14.08346 -8.00835,-25.50625 -12.55634,-38 h 43 v 200 c -92.00613,-0.25384 -140.10826,-110.70886 -91.92129,-184 19.17866,-29.17025 50.93161,-45.53943 84.92129,-49.71371 86.0332,-10.56577 152.0647,82.99795 119.9854,161.71371 -19.5471,47.9643 -56.7792,61.87183 -102.9854,73 m -60,-195 11,20 c -6.85296,2.02564 -17.14703,2.02564 -24,0 l 11,-20 h 2 m 110,0 11,21 h -23 c 1.1931,-7.64926 6.0137,-16.12326 12,-21 m -84,51 c 0,34.03113 1,67.94171 1,102 0,16.23185 -6.55615,31.51551 13,34 v -136 h -14 m 43,0 v 136 l 13,-2 v -134 h -13 m 67,0 1,100 h 1 c 3.1039,-4.96225 10.1492,-9.63736 11.6821,-15.16977 7.3555,-26.5465 -3.6653,-57.98706 1.3179,-84.83023 h -15 m -179,7 c 0.48711,23.60044 -8.78524,78.23954 15,92 l 1,-92 h -16 m 46,20 1,67 0.6034,29.78626 12.3966,7.21374 v -105 l -14,1 m 89,-1 v 104 l 13,-4 c 0,-32.81454 -3.1126,-67.45807 1,-100 h -14 m 23,14 -1,78 c 23.7511,-10.51764 14,-55.14203 14,-78 h -13 m -134,1 c 0,23.36838 -9.26251,65.31824 13,78 v -78 h -13" /></g></g></g></svg>
