<?xml version="1.0" encoding="UTF-8" standalone="no"?>
<!-- Created with Inkscape (http://www.inkscape.org/) -->

<svg
   version="1.1"
   id="svg1"
   width="626.24915"
   height="96.064568"
   viewBox="0 0 626.24914 96.064568"
   sodipodi:docname="NUMERA LOGO FINAL. letras.svg"
   xml:space="preserve"
   inkscape:version="1.4 (86a8ad7, 2024-10-11)"
   xmlns:inkscape="http://www.inkscape.org/namespaces/inkscape"
   xmlns:sodipodi="http://sodipodi.sourceforge.net/DTD/sodipodi-0.dtd"
   xmlns="http://www.w3.org/2000/svg"
   xmlns:svg="http://www.w3.org/2000/svg"><defs
     id="defs1"><inkscape:path-effect
       effect="fillet_chamfer"
       id="path-effect5"
       is_visible="true"
       lpeversion="1"
       nodesatellites_param="F,0,0,1,0,0,0,1 @ F,0,0,1,0,0,0,1 @ F,0,0,1,0,0,0,1 @ F,0,0,1,0,0,0,1 @ F,0,0,1,0,0,0,1 | F,0,0,1,0,0,0,1 @ F,0,0,1,0,0,0,1 @ F,0,0,1,0,0,0,1 @ F,0,0,1,0,0,0,1 @ F,0,0,1,0,0,0,1 @ F,0,0,1,0,0,0,1 @ F,0,0,1,0,0,0,1 @ F,0,0,1,0,0,0,1 @ F,0,0,1,0,0,0,1 @ F,0,0,1,0,0,0,1 @ F,0,0,1,0,0,0,1 @ F,0,0,1,0,0,0,1 @ F,0,0,1,0,0,0,1 @ F,0,0,1,0,0,0,1 @ F,0,0,1,0,0,0,1 @ F,0,0,1,0,0,0,1 @ F,0,0,1,0,0,0,1 @ F,0,0,1,0,0,0,1 @ F,0,0,1,0,0,0,1 @ F,0,0,1,0,0,0,1 @ F,0,0,1,0,0,0,1 @ F,0,0,1,0,0,0,1 | F,0,0,1,0,0,0,1 @ F,0,0,1,0,0,0,1 @ F,0,0,1,0,0,0,1 @ F,0,0,1,0,0,0,1 @ F,0,0,1,0,0,0,1 | F,0,0,1,0,0,0,1 @ F,0,0,1,0,0,0,1 @ F,0,0,1,0,0,0,1 @ F,0,0,1,0,0,0,1 | F,0,0,1,0,0,0,1 @ F,0,0,1,0,0,0,1 @ F,0,0,1,0,0,0,1 @ F,0,0,1,0,0,0,1 @ F,0,0,1,0,0,0,1 | F,0,0,1,0,0,0,1 @ F,0,0,1,0,0,0,1 @ F,0,0,1,0,0,0,1 @ F,0,0,1,0,0,0,1 @ F,0,0,1,0,0,0,1 | F,0,0,1,0,0,0,1 @ F,0,0,1,0,0,0,1 @ F,0,0,1,0,0,0,1 @ F,0,0,1,0,0,0,1 @ F,0,0,1,0,0,0,1 @ F,0,0,1,0,0,0,1 | F,0,0,1,0,0,0,1 @ F,0,0,1,0,0,0,1 @ F,0,0,1,0,0,0,1 @ F,0,0,1,0,0,0,1 | F,0,0,1,0,0,0,1 @ F,0,0,1,0,0,0,1 @ F,0,0,1,0,0,0,1 @ F,0,0,1,0,0,0,1 @ F,0,0,1,0,0,0,1 @ F,0,0,1,0,0,0,1 | F,0,0,1,0,0,0,1 @ F,0,0,1,0,0,0,1 @ F,0,0,1,0,0,0,1 @ F,0,0,1,0,0,0,1 @ F,0,0,1,0,0,0,1 | F,0,0,1,0,0,0,1 @ F,0,0,1,0,0,0,1 @ F,0,0,1,0,0,0,1 @ F,0,0,1,0,0,0,1 | F,0,0,1,0,0,0,1 @ F,0,0,1,0,0,0,1 @ F,0,0,1,0,0,0,1 @ F,0,0,1,0,0,0,1"
       radius="0"
       unit="px"
       method="auto"
       mode="F"
       chamfer_steps="1"
       flexible="false"
       use_knot_distance="true"
       apply_no_radius="true"
       apply_with_radius="true"
       only_selected="false"
       hide_knots="false" /><filter
       style="color-interpolation-filters:sRGB"
       inkscape:label="Invert"
       id="filter3"
       x="0"
       y="0"
       width="1"
       height="1"><feColorMatrix
         type="hueRotate"
         values="180"
         result="color1"
         id="feColorMatrix2" /><feColorMatrix
         values="1 0 0 0 0 0 1 0 0 0 0 0 1 0 0 -0.21 -0.72 -0.07 2 0 "
         result="color2"
         id="feColorMatrix3" /></filter></defs><sodipodi:namedview
     id="namedview1"
     pagecolor="#ffffff"
     bordercolor="#000000"
     borderopacity="0.25"
     inkscape:showpageshadow="2"
     inkscape:pageopacity="0.0"
     inkscape:pagecheckerboard="0"
     inkscape:deskcolor="#d1d1d1"
     inkscape:zoom="2.1191366"
     inkscape:cx="295.87522"
     inkscape:cy="36.571498"
     inkscape:window-width="2560"
     inkscape:window-height="1494"
     inkscape:window-x="-11"
     inkscape:window-y="-11"
     inkscape:window-maximized="1"
     inkscape:current-layer="g1" /><g
     inkscape:groupmode="layer"
     id="layer3"
     inkscape:label="Layer 1"
     style="display:inline"
     transform="matrix(1.9092965,0,0,1.9116731,-1622.4569,-1444.388)"><path
       d="m 1154.7668,755.56226 c -9.4225,12.97003 -20.6098,34.0546 -23,50 8.9987,-3.60056 17.9975,-7.20113 26.9962,-10.80169 6.3346,3.60056 12.6692,7.20113 19.0038,10.80169 -2.2206,-15.03634 -12.0139,-39.35577 -23,-50 m -304.99994,1 v 49 c 14.9942,-0.0116 10.43285,-17.66241 9,-29 8.45996,8.63825 18.02785,25.63959 30,29 v -48 c -14.32908,0.011 -9,16.70627 -9,28 -7.44803,-9.15344 -18.29728,-25.71518 -30,-29 m 57,1 c 0,10.95133 -3.19362,27.94129 1.41744,37.99921 6.22957,13.58832 27.14731,13.41144 34.5733,1.00003 5.62303,-9.39804 2.00926,-28.27496 2.00926,-38.99924 h -9 c 0,8.00647 4.01264,46.70096 -13.95678,37.67823 -10.35735,-5.20057 -6.04322,-28.08954 -6.04322,-37.67823 h -9 m 56,0 v 48 h 9 v -29 h 1 c 11.50173,24.31302 13.60807,11.64115 28.00004,0 -0.3334,9.66667 -0.6667,19.33333 -1.00004,29 16.82114,-0.013 10.00004,-34.74051 10.00004,-48 -12.59641,0.14887 -16.17385,14.18878 -25.00004,21 -3.54251,-7.94827 -12.73486,-20.69684 -22,-21 m 65.99994,0 v 47 h 33 v -9 h -24 v -10 h 19 c 3.5659,-12.19995 -11.034,-9 -19,-9 v -10 h 23 v -9 h -32 m 49,0 c 0.3333,16 0.6667,32 1,48 3,-0.33333 6,-0.66667 9,-1 v -15 c 14.7433,0.0114 13.8415,15.31122 29,15 -3.3333,-5.66667 -6.6667,-11.33333 -10,-17 11.3177,-5.29303 12.848,-22.58743 0.9993,-28.54321 -7.9015,-3.97165 -21.3129,-1.45679 -29.9993,-1.45679 m 10,23 v -14 c 22.0289,0 22.0396,14 0,14 m 68,-8 c 1.6667,5 3.3333,10 5,15 h -12 c 2.3333,-5 4.6667,-10 7,-15"
       style="fill:#423e51;stroke:none"
       id="path1" /></g><g
     inkscape:groupmode="layer"
     inkscape:label="Image"
     id="g1"
     transform="translate(-901.06465,-1003.8111)"
     style="display:inline" /></svg>
